<?xml version="1.0" encoding="utf-8"?>
<!-- Generator: Adobe Illustrator 15.1.0, SVG Export Plug-In . SVG Version: 6.00 Build 0)  -->
<!DOCTYPE svg PUBLIC "-//W3C//DTD SVG 1.1//EN" "http://www.w3.org/Graphics/SVG/1.1/DTD/svg11.dtd">
<svg version="1.1" id="Capa_1" xmlns="http://www.w3.org/2000/svg" xmlns:xlink="http://www.w3.org/1999/xlink" x="0px" y="0px"
	 width="612px" height="792px" viewBox="0 0 612 792" enable-background="new 0 0 612 792" xml:space="preserve">
<path fill="#FFFFFF" d="M474.538,90H335.883v612h138.655C550.335,702,612,640.335,612,564.539V227.461
	C612,151.665,550.335,90,474.538,90z M473.942,486.844c-39.875,0-72.316-32.441-72.316-72.316c0-39.875,32.441-72.315,72.316-72.315
	c39.874,0,72.316,32.442,72.316,72.315C546.258,454.401,513.816,486.844,473.942,486.844z"/>
<g>
	<path fill="#FFFFFF" d="M300.024,702H137.461C61.665,702,0,640.335,0,564.539V227.461C0,151.665,61.665,90,137.461,90h162.563V702z
		 M137.461,125.859c-56.023,0-101.603,45.579-101.603,101.602v337.078c0,56.022,45.578,101.602,101.603,101.602h126.703V125.859
		H137.461z"/>
	<path fill="#FFFFFF" d="M150.012,342.211c-39.875,0-72.316-32.442-72.316-72.316s32.441-72.316,72.316-72.316
		c39.874,0,72.316,32.442,72.316,72.316S189.886,342.211,150.012,342.211z"/>
</g>
</svg>
